<?xml version="1.0" encoding="UTF-8"?>
<svg width="233px" height="219px" viewBox="0 0 233 219" version="1.1" xmlns="http://www.w3.org/2000/svg" xmlns:xlink="http://www.w3.org/1999/xlink">
    <!-- Generator: sketchtool 49.3 (51167) - http://www.bohemiancoding.com/sketch -->
    <title>3FED150C-D39C-42DB-A88A-443FD72BFAF4</title>
    <desc>Created with sketchtool.</desc>
    <defs></defs>
    <g id="Page-1" stroke="none" stroke-width="1" fill="none" fill-rule="evenodd">
        <g id="description" transform="translate(-42.000000, -91.000000)" fill="#BDBDBD">
            <g id="Group" transform="translate(42.000000, 91.000000)">
                <path d="M73.0158883,196.124055 L73.0158883,181.963335 L115.498047,160.722256 L157.980206,181.963335 L157.980206,196.124055 L115.498047,174.882975 L73.0158883,196.124055 Z M73.0158883,218.94152 L73.0158883,204.7808 L115.498047,183.539721 L157.980206,204.7808 L157.980206,218.94152 L115.498047,197.70044 L73.0158883,218.94152 Z M22.8174651,95.9349243 L36.4956699,92.2698604 L68.0081688,127.806879 L58.4860534,174.339089 L44.8078486,178.004153 L54.329964,131.471943 L22.8174651,95.9349243 Z M0,100.498417 L13.6782048,96.8333534 L45.1907037,132.370372 L35.6685883,178.902582 L21.9903835,182.567646 L31.5124989,136.035436 L0,100.498417 Z M209.476452,95.9349243 L177.963953,131.471943 L187.486069,178.004153 L173.807864,174.339089 L164.285749,127.806879 L195.798248,92.2698604 L209.476452,95.9349243 Z M232.293917,100.498417 L200.781419,136.035436 L210.303534,182.567646 L196.625329,178.902582 L187.103214,132.370372 L218.615713,96.8333534 L232.293917,100.498417 Z M133.294671,18.2539721 L159.46476,57.8903658 L206.875929,60.7361309 L199.795569,72.9996738 L152.384401,70.1539087 L126.214311,30.517515 L133.294671,18.2539721 Z M142.421657,0 L168.591746,39.6363938 L216.002915,42.4821588 L208.922555,54.7457017 L161.511387,51.8999367 L135.341298,12.2635429 L142.421657,0 Z M103.525709,19.2539721 L110.606068,31.517515 L84.4359793,71.1539087 L37.0248109,73.9996738 L29.9444511,61.7361309 L77.3556195,58.8903658 L103.525709,19.2539721 Z M88.8352295,0 L95.9155893,12.2635429 L69.7455003,51.8999367 L22.3343319,54.7457017 L15.2539721,42.4821588 L62.6651405,39.6363938 L88.8352295,0 Z" id="big-logo"></path>
            </g>
        </g>
    </g>
</svg>