<svg width="168" height="45" viewBox="0 0 168 45" fill="none" xmlns="http://www.w3.org/2000/svg">
<path d="M21.5971 0.302701C21.7147 -0.100901 22.2865 -0.1009 22.4041 0.302701L25.1264 9.64568C25.263 10.1145 25.769 10.3686 26.2266 10.1983L36.9818 6.19555C37.3768 6.04857 37.7182 6.50952 37.4625 6.84446L30.7395 15.6504C30.3647 16.1414 29.8226 16.4777 29.2162 16.5955L22.8994 17.8229C22.1183 17.9747 22.155 19.1046 22.9444 19.2053L43.6687 21.7312C44.1352 21.7907 44.1668 22.4544 43.7082 22.558L31.3186 25.1493C30.7523 25.2772 30.4832 25.9271 30.7931 26.4179L37.6807 37.325C37.8955 37.6651 37.5557 38.0836 37.1788 37.9433L26.2266 33.8673C25.769 33.697 25.263 33.9511 25.1264 34.4199L22.4041 43.7629C22.2865 44.1665 21.7147 44.1665 21.5971 43.7629L18.8748 34.4199C18.7382 33.9511 18.2322 33.697 17.7746 33.8673L7.01938 37.87C6.62445 38.017 6.28304 37.5561 6.53875 37.2211L13.2472 28.4341C13.6308 27.9317 14.1889 27.5917 14.8112 27.4814L21.8785 26.2281C22.6706 26.0877 22.6398 24.941 21.8413 24.8432L0.369239 22.3268C-0.0986811 22.2695 -0.132121 21.6036 0.327707 21.4997L12.6826 18.9163C13.2489 18.7884 13.5181 18.1385 13.2081 17.6476L6.32051 6.74053C6.10574 6.40043 6.44547 5.98196 6.82245 6.12226L17.7746 10.1983C18.2322 10.3686 18.7382 10.1145 18.8748 9.64568L21.5971 0.302701Z" fill="#1BA5F8"/>
<path d="M58.0122 32.425C56.7588 32.425 55.5837 32.327 54.4869 32.1312C53.4098 31.9549 52.4795 31.6905 51.6961 31.338V27.3134C52.5578 27.6855 53.5077 27.989 54.5457 28.224C55.6033 28.4591 56.6021 28.5766 57.5421 28.5766C58.7172 28.5766 59.5887 28.4689 60.1567 28.2534C60.7442 28.038 61.038 27.568 61.038 26.8433C61.038 26.3537 60.8911 25.962 60.5974 25.6682C60.3232 25.3745 59.8629 25.1199 59.2166 24.9044C58.5899 24.6694 57.7282 24.3952 56.6315 24.0819C55.3389 23.6902 54.3107 23.2593 53.5469 22.7893C52.7831 22.2997 52.2347 21.7121 51.9018 21.0267C51.5688 20.3412 51.4023 19.4991 51.4023 18.5002C51.4023 16.6984 52.0486 15.3177 53.3412 14.3581C54.6338 13.3984 56.5433 12.9186 59.0698 12.9186C60.1665 12.9186 61.2339 13.0067 62.2719 13.183C63.3098 13.3397 64.152 13.5257 64.7983 13.7412V17.7952C63.9561 17.4622 63.1042 17.2174 62.2425 17.0608C61.4003 16.9041 60.5778 16.8257 59.7748 16.8257C58.7172 16.8257 57.8555 16.9237 57.1896 17.1195C56.5433 17.3154 56.2202 17.7658 56.2202 18.4709C56.2202 18.8821 56.3377 19.2151 56.5727 19.4697C56.8077 19.7047 57.2092 19.9201 57.7772 20.116C58.3647 20.3118 59.1579 20.5468 60.1567 20.821C61.7039 21.2323 62.8888 21.7317 63.7113 22.3193C64.5339 22.8872 65.1018 23.5531 65.4152 24.3169C65.7286 25.0611 65.8852 25.9033 65.8852 26.8433C65.8852 28.508 65.2389 29.8594 63.9463 30.8974C62.6538 31.9158 60.6757 32.425 58.0122 32.425Z" fill="#011627"/>
<path d="M72.2509 32.425C70.5274 32.425 69.2544 31.9843 68.4319 31.103C67.6289 30.2217 67.2274 29.0074 67.2274 27.4602V21.7905H65.3473V18.2065H67.2274V15.2981L71.9571 14.0349V18.2065H75.3355L75.1298 21.7905H71.9571V27.1371C71.9571 27.803 72.1236 28.273 72.4565 28.5472C72.7894 28.8018 73.2889 28.9291 73.9547 28.9291C74.5227 28.9291 75.1004 28.8312 75.688 28.6353V31.8374C74.7675 32.2291 73.6218 32.425 72.2509 32.425Z" fill="#011627"/>
<path d="M80.6828 32.425C79.8015 32.425 78.9789 32.2683 78.2151 31.9549C77.4709 31.6416 76.8735 31.1618 76.4231 30.5155C75.9727 29.8496 75.7474 29.027 75.7474 28.0478C75.7474 26.6181 76.2273 25.5018 77.1869 24.6988C78.1661 23.8762 79.6252 23.465 81.5641 23.465H85.4419V23.1418C85.4419 22.4368 85.2068 21.9374 84.7368 21.6436C84.2668 21.3302 83.3855 21.1736 82.0929 21.1736C80.5065 21.1736 78.9495 21.4184 77.4219 21.908V18.8528C78.1074 18.5786 78.9397 18.3534 79.919 18.1771C80.9178 18.0008 81.9656 17.9127 83.0623 17.9127C85.2166 17.9127 86.9009 18.3534 88.1152 19.2347C89.349 20.116 89.9659 21.5163 89.9659 23.4356V32.1312H85.8238L85.5887 30.9561C85.0795 31.4261 84.4235 31.7885 83.6205 32.0431C82.8371 32.2977 81.8579 32.425 80.6828 32.425ZM82.181 29.5166C82.9252 29.5166 83.5715 29.3893 84.1199 29.1347C84.6683 28.8801 85.1089 28.557 85.4419 28.1653V26.197H82.0929C80.7024 26.197 80.0071 26.7552 80.0071 27.8715C80.0071 28.3807 80.1834 28.7822 80.5359 29.076C80.8884 29.3698 81.4368 29.5166 82.181 29.5166Z" fill="#011627"/>
<path d="M91.0396 32.1312V12.3311H95.7693V22.6718L100.323 18.2065H105.699L100.117 23.9937L106.022 32.1312H100.998L97.15 26.4908L95.7693 27.8421V32.1312H91.0396Z" fill="#011627"/>
<path d="M111.886 32.425C109.458 32.425 107.509 31.8276 106.04 30.633C104.571 29.4187 103.837 27.5973 103.837 25.1688C103.837 22.9558 104.444 21.1931 105.658 19.881C106.873 18.5688 108.694 17.9127 111.122 17.9127C113.336 17.9127 115.049 18.4807 116.263 19.6166C117.478 20.7525 118.085 22.2801 118.085 24.1994V26.6964H108.214C108.43 27.6169 108.929 28.2632 109.712 28.6353C110.515 28.9878 111.602 29.1641 112.973 29.1641C113.737 29.1641 114.511 29.0956 115.294 28.9585C116.097 28.8214 116.763 28.6451 117.292 28.4297V31.5143C116.626 31.8276 115.833 32.0529 114.912 32.1899C113.992 32.3466 112.983 32.425 111.886 32.425ZM108.214 23.9644H113.972V23.3475C113.972 22.662 113.766 22.1234 113.355 21.7317C112.944 21.3204 112.249 21.1148 111.269 21.1148C110.133 21.1148 109.34 21.3498 108.89 21.8198C108.439 22.2703 108.214 22.9851 108.214 23.9644Z" fill="#011627"/>
<path d="M124.75 32.425C123.496 32.425 122.321 32.327 121.224 32.1312C120.147 31.9549 119.217 31.6905 118.434 31.338V27.3134C119.295 27.6855 120.245 27.989 121.283 28.224C122.341 28.4591 123.34 28.5766 124.28 28.5766C125.455 28.5766 126.326 28.4689 126.894 28.2534C127.482 28.038 127.776 27.568 127.776 26.8433C127.776 26.3537 127.629 25.962 127.335 25.6682C127.061 25.3745 126.6 25.1199 125.954 24.9044C125.327 24.6694 124.466 24.3952 123.369 24.0819C122.076 23.6902 121.048 23.2593 120.284 22.7893C119.521 22.2997 118.972 21.7121 118.639 21.0267C118.306 20.3412 118.14 19.4991 118.14 18.5002C118.14 16.6984 118.786 15.3177 120.079 14.3581C121.371 13.3984 123.281 12.9186 125.807 12.9186C126.904 12.9186 127.971 13.0067 129.009 13.183C130.047 13.3397 130.89 13.5257 131.536 13.7412V17.7952C130.694 17.4622 129.842 17.2174 128.98 17.0608C128.138 16.9041 127.315 16.8257 126.512 16.8257C125.455 16.8257 124.593 16.9237 123.927 17.1195C123.281 17.3154 122.958 17.7658 122.958 18.4709C122.958 18.8821 123.075 19.2151 123.31 19.4697C123.545 19.7047 123.947 19.9201 124.515 20.116C125.102 20.3118 125.895 20.5468 126.894 20.821C128.441 21.2323 129.626 21.7317 130.449 22.3193C131.271 22.8872 131.839 23.5531 132.153 24.3169C132.466 25.0611 132.623 25.9033 132.623 26.8433C132.623 28.508 131.976 29.8594 130.684 30.8974C129.391 31.9158 127.413 32.425 124.75 32.425Z" fill="#011627"/>
<path d="M138.988 32.425C137.265 32.425 135.992 31.9843 135.169 31.103C134.366 30.2217 133.965 29.0074 133.965 27.4602V21.7905H132.085V18.2065H133.965V15.2981L138.695 14.0349V18.2065H142.073L141.867 21.7905H138.695V27.1371C138.695 27.803 138.861 28.273 139.194 28.5472C139.527 28.8018 140.026 28.9291 140.692 28.9291C141.26 28.9291 141.838 28.8312 142.426 28.6353V31.8374C141.505 32.2291 140.359 32.425 138.988 32.425Z" fill="#011627"/>
<path d="M147.42 32.425C146.539 32.425 145.716 32.2683 144.953 31.9549C144.208 31.6416 143.611 31.1618 143.161 30.5155C142.71 29.8496 142.485 29.027 142.485 28.0478C142.485 26.6181 142.965 25.5018 143.924 24.6988C144.904 23.8762 146.363 23.465 148.302 23.465H152.179V23.1418C152.179 22.4368 151.944 21.9374 151.474 21.6436C151.004 21.3302 150.123 21.1736 148.83 21.1736C147.244 21.1736 145.687 21.4184 144.159 21.908V18.8528C144.845 18.5786 145.677 18.3534 146.657 18.1771C147.655 18.0008 148.703 17.9127 149.8 17.9127C151.954 17.9127 153.638 18.3534 154.853 19.2347C156.087 20.116 156.703 21.5163 156.703 23.4356V32.1312H152.561L152.326 30.9561C151.817 31.4261 151.161 31.7885 150.358 32.0431C149.575 32.2977 148.595 32.425 147.42 32.425ZM148.919 29.5166C149.663 29.5166 150.309 29.3893 150.857 29.1347C151.406 28.8801 151.846 28.557 152.179 28.1653V26.197H148.83C147.44 26.197 146.745 26.7552 146.745 27.8715C146.745 28.3807 146.921 28.7822 147.273 29.076C147.626 29.3698 148.174 29.5166 148.919 29.5166Z" fill="#011627"/>
<path d="M157.777 32.1312V18.2065H162.272L162.419 19.4991C163.026 19.1269 163.78 18.794 164.681 18.5002C165.582 18.1869 166.483 17.991 167.383 17.9127V21.4673C166.874 21.5261 166.306 21.624 165.68 21.7611C165.072 21.8786 164.485 22.0255 163.917 22.2017C163.369 22.378 162.899 22.5641 162.507 22.7599V32.1312H157.777Z" fill="#011627"/>
</svg>
