<svg width="45" height="45" viewBox="0 0 45 45" fill="none" xmlns="http://www.w3.org/2000/svg">
<path d="M21.5971 0.302701C21.7147 -0.100901 22.2865 -0.1009 22.4041 0.302701L25.1264 9.64568C25.263 10.1145 25.769 10.3686 26.2266 10.1983L36.9818 6.19555C37.3768 6.04857 37.7182 6.50952 37.4625 6.84446L30.7395 15.6504C30.3647 16.1414 29.8226 16.4777 29.2162 16.5955L22.8994 17.8229C22.1183 17.9747 22.155 19.1046 22.9444 19.2053L43.6687 21.7312C44.1352 21.7907 44.1668 22.4544 43.7082 22.558L31.3186 25.1493C30.7523 25.2772 30.4832 25.9271 30.7931 26.4179L37.6807 37.325C37.8955 37.6651 37.5557 38.0836 37.1788 37.9433L26.2266 33.8673C25.769 33.697 25.263 33.9511 25.1264 34.4199L22.4041 43.7629C22.2865 44.1665 21.7147 44.1665 21.5971 43.7629L18.8748 34.4199C18.7382 33.9511 18.2322 33.697 17.7746 33.8673L7.01938 37.87C6.62445 38.017 6.28304 37.5561 6.53875 37.2211L13.2472 28.4341C13.6308 27.9317 14.1889 27.5917 14.8112 27.4814L21.8785 26.2281C22.6706 26.0877 22.6398 24.941 21.8413 24.8432L0.369239 22.3268C-0.0986811 22.2695 -0.132121 21.6036 0.327707 21.4997L12.6826 18.9163C13.2489 18.7884 13.5181 18.1385 13.2081 17.6476L6.32051 6.74053C6.10574 6.40043 6.44547 5.98196 6.82245 6.12226L17.7746 10.1983C18.2322 10.3686 18.7382 10.1145 18.8748 9.64568L21.5971 0.302701Z" fill="#1BA5F8"/>
</svg>
