<svg width="32" height="32" viewBox="0 0 32 32" fill="none" xmlns="http://www.w3.org/2000/svg">
<circle cx="16" cy="16" r="16" fill="#1BA5F8"/>
<path fill-rule="evenodd" clip-rule="evenodd" d="M16 14C17.1046 14 18 14.8954 18 16V24C18 25.1046 17.1046 26 16 26C14.8954 26 14 25.1046 14 24V16C14 14.8954 14.8954 14 16 14Z" fill="#F4F7FA"/>
<path fill-rule="evenodd" clip-rule="evenodd" d="M16 6C17.1046 6 18 6.89543 18 8V9C18 10.1046 17.1046 11 16 11C14.8954 11 14 10.1046 14 9V8C14 6.89543 14.8954 6 16 6Z" fill="#F4F7FA"/>
</svg>
