<svg width="32" height="32" viewBox="0 0 32 32" fill="none" xmlns="http://www.w3.org/2000/svg">
<circle cx="16" cy="16" r="16" fill="#1BA5F8"/>
<path fill-rule="evenodd" clip-rule="evenodd" d="M16 6C17.1046 6 18 6.89543 18 8V16C18 17.1046 17.1046 18 16 18C14.8954 18 14 17.1046 14 16V8C14 6.89543 14.8954 6 16 6Z" fill="#F4F7FA"/>
<path fill-rule="evenodd" clip-rule="evenodd" d="M16 21C17.1046 21 18 21.8954 18 23V24C18 25.1046 17.1046 26 16 26C14.8954 26 14 25.1046 14 24V23C14 21.8954 14.8954 21 16 21Z" fill="#F4F7FA"/>
</svg>
